STARTFONT 2.1
FONT -Bitstream-Terminal-Bold-R-Narrow--36-280-100-100-C-140-ISO8859-1
SIZE 28 100 100
FONTBOUNDINGBOX 14 38 0 -8

STARTPROPERTIES 25
CHARSET_REGISTRY "ISO8859"
CHARSET_ENCODING "1"
CAP_HEIGHT 22
X_HEIGHT 18
AVERAGE_WIDTH 140
FONTNAME_REGISTRY ""
FAMILY_NAME "Terminal"
FOUNDRY "Bitstream"
WEIGHT_NAME "Bold"
SETWIDTH_NAME "Narrow"
SLANT "R"
ADD_STYLE_NAME ""
PIXEL_SIZE 36
POINT_SIZE 280
RESOLUTION_X 100
RESOLUTION_Y 100
SPACING "C"
CHARSET_COLLECTIONS "ASCII ISO8859-1"
FULL_NAME "Terminal Bold Narrow"
COPYRIGHT "Copyright (c) 1988 Bitstream, Inc., Copyright 1990 Digital Equipment Corp. All rights reserved."
WEIGHT 10
QUAD_WIDTH 14
DEFAULT_CHAR 159
FONT_DESCENT 10
FONT_ASCENT 30
ENDPROPERTIES

CHARS 194

STARTCHAR space
ENCODING 32
SWIDTH 360 0
DWIDTH 14 0
BBX 1 1 0 0
BITMAP
00
ENDCHAR

STARTCHAR exclam
ENCODING 33
SWIDTH 360 0
DWIDTH 14 0
BBX 6 22 4 0
BITMAP
78
78
78
78
78
78
78
78
78
78
78
78
78
78
00
00
00
78
FC
FC
FC
78
ENDCHAR

STARTCHAR quotedbl
ENCODING 34
SWIDTH 360 0
DWIDTH 14 0
BBX 8 10 3 18
BITMAP
E7
E7
E7
E7
E7
E7
E7
E7
E7
E7
ENDCHAR

STARTCHAR numbersign
ENCODING 35
SWIDTH 360 0
DWIDTH 14 0
BBX 12 26 1 -4
BITMAP
39C0
39C0
39C0
39C0
39C0
39C0
39C0
FFF0
FFF0
FFF0
FFF0
39C0
39C0
39C0
39C0
FFF0
FFF0
FFF0
FFF0
39C0
39C0
39C0
39C0
39C0
39C0
39C0
ENDCHAR

STARTCHAR dollar
ENCODING 36
SWIDTH 360 0
DWIDTH 14 0
BBX 12 30 1 -5
BITMAP
0700
0700
0700
0700
1FB0
7FF0
7FF0
F8F0
F070
F070
F000
F800
7E00
7F80
1FE0
07E0
01F0
00F0
00F0
E0F0
F1F0
FFE0
FFE0
CF80
0E00
0E00
0E00
0E00
0E00
0E00
ENDCHAR

STARTCHAR percent
ENCODING 37
SWIDTH 360 0
DWIDTH 14 0
BBX 14 22 0 0
BITMAP
3F00
7F80
F3C0
F3C0
F3C0
F3C0
7F80
3F1C
007C
03FC
0FE0
3F80
FC00
F000
C3F0
07F8
0F3C
0F3C
0F3C
0F3C
07F8
03F0
ENDCHAR

STARTCHAR ampersand
ENCODING 38
SWIDTH 360 0
DWIDTH 14 0
BBX 12 22 1 0
BITMAP
0F60
0FE0
3FE0
3EE0
3C60
3C00
3C00
3C00
1C00
1E00
1E00
7F00
7F30
FFB0
F3B0
F3F0
F1E0
F1E0
FFF0
FFF0
3E70
3C70
ENDCHAR

STARTCHAR quoteright
ENCODING 39
SWIDTH 360 0
DWIDTH 14 0
BBX 7 9 3 19
BITMAP
3E
3C
3C
78
78
70
F0
E0
E0
ENDCHAR

STARTCHAR parenleft
ENCODING 40
SWIDTH 360 0
DWIDTH 14 0
BBX 9 32 3 -4
BITMAP
0780
0F00
1E00
1E00
3C00
3C00
7800
7800
7800
F000
F000
F000
F000
F000
F000
F000
F000
F000
F000
F000
F000
F000
F000
7800
7800
7800
3C00
3C00
1E00
1E00
0F00
0780
ENDCHAR

STARTCHAR parenright
ENCODING 41
SWIDTH 360 0
DWIDTH 14 0
BBX 9 32 2 -4
BITMAP
F000
7800
3C00
3C00
1E00
1E00
0F00
0F00
0F00
0780
0780
0780
0780
0780
0780
0780
0780
0780
0780
0780
0780
0780
0780
0F00
0F00
0F00
1E00
1E00
3C00
3C00
7800
F000
ENDCHAR

STARTCHAR asterisk
ENCODING 42
SWIDTH 360 0
DWIDTH 14 0
BBX 10 12 2 5
BITMAP
0C00
0C00
0C00
CCC0
EDC0
FFC0
3F00
1E00
3F00
7380
E1C0
C0C0
ENDCHAR

STARTCHAR plus
ENCODING 43
SWIDTH 360 0
DWIDTH 14 0
BBX 12 16 1 2
BITMAP
0F00
0F00
0F00
0F00
0F00
0F00
FFF0
FFF0
FFF0
FFF0
0F00
0F00
0F00
0F00
0F00
0F00
ENDCHAR

STARTCHAR comma
ENCODING 44
SWIDTH 360 0
DWIDTH 14 0
BBX 7 9 3 -4
BITMAP
3E
3C
3C
78
78
70
F0
E0
E0
ENDCHAR

STARTCHAR minus
ENCODING 45
SWIDTH 360 0
DWIDTH 14 0
BBX 10 4 2 8
BITMAP
FFC0
FFC0
FFC0
FFC0
ENDCHAR

STARTCHAR period
ENCODING 46
SWIDTH 360 0
DWIDTH 14 0
BBX 6 5 4 0
BITMAP
78
FC
FC
FC
78
ENDCHAR

STARTCHAR slash
ENCODING 47
SWIDTH 360 0
DWIDTH 14 0
BBX 11 27 2 -2
BITMAP
01E0
01E0
01E0
03C0
03C0
03C0
03C0
0780
0780
0780
0F00
0F00
0F00
0F00
1E00
1E00
1E00
3C00
3C00
3C00
7800
7800
7800
7800
F000
F000
F000
ENDCHAR

STARTCHAR zero
ENCODING 48
SWIDTH 360 0
DWIDTH 14 0
BBX 12 22 1 0
BITMAP
0F00
1F80
3FC0
7FE0
79E0
F0F0
F0F0
F0F0
F0F0
F0F0
F0F0
F0F0
F0F0
F0F0
F0F0
F0F0
F0F0
79E0
7FE0
3FC0
1F80
0F00
ENDCHAR

STARTCHAR one
ENCODING 49
SWIDTH 360 0
DWIDTH 14 0
BBX 11 22 1 0
BITMAP
0700
0F00
1F00
3F00
7F00
FF00
EF00
4F00
0F00
0F00
0F00
0F00
0F00
0F00
0F00
0F00
0F00
0F00
7FE0
7FE0
7FE0
7FE0
ENDCHAR

STARTCHAR two
ENCODING 50
SWIDTH 360 0
DWIDTH 14 0
BBX 11 22 1 0
BITMAP
1F00
7FC0
7FC0
FFE0
E1E0
E1E0
E1E0
01E0
01C0
03C0
0380
0780
0F00
0E00
1E00
3C00
3860
7860
FFE0
FFE0
FFE0
FFE0
ENDCHAR

STARTCHAR three
ENCODING 51
SWIDTH 360 0
DWIDTH 14 0
BBX 11 22 1 0
BITMAP
1F00
7FC0
7FC0
FFE0
E1E0
E1E0
01E0
01E0
01C0
1FC0
1F80
1FC0
01E0
01E0
01E0
01E0
E1E0
E1E0
FFE0
7FC0
7FC0
1F00
ENDCHAR

STARTCHAR four
ENCODING 52
SWIDTH 360 0
DWIDTH 14 0
BBX 12 22 1 0
BITMAP
03C0
07C0
07C0
0FC0
0FC0
1FC0
1BC0
3BC0
33C0
73C0
63C0
E3C0
FFF0
FFF0
FFF0
FFF0
03C0
03C0
03C0
03C0
03C0
03C0
ENDCHAR

STARTCHAR five
ENCODING 53
SWIDTH 360 0
DWIDTH 14 0
BBX 11 22 1 0
BITMAP
FFE0
FFE0
FFE0
FFE0
E000
E000
E000
EF00
FFC0
FFC0
FFE0
F1E0
F1E0
01E0
01E0
01E0
F1E0
F1E0
FFE0
7FC0
7FC0
1F00
ENDCHAR

STARTCHAR six
ENCODING 54
SWIDTH 360 0
DWIDTH 14 0
BBX 11 22 1 0
BITMAP
03C0
0FC0
1FC0
3F00
7C00
7800
7000
F700
FFC0
FFC0
FFE0
F1E0
F1E0
F1E0
F1E0
F1E0
F1E0
F1E0
FFE0
7FC0
7FC0
1F00
ENDCHAR

STARTCHAR seven
ENCODING 55
SWIDTH 360 0
DWIDTH 14 0
BBX 11 22 1 0
BITMAP
FFE0
FFE0
FFE0
FFE0
01E0
01E0
01C0
03C0
03C0
0380
0380
0780
0780
0700
0F00
0F00
0E00
0E00
1E00
1E00
1E00
1E00
ENDCHAR

STARTCHAR eight
ENCODING 56
SWIDTH 360 0
DWIDTH 14 0
BBX 11 22 1 0
BITMAP
0E00
3F80
7FC0
7FC0
F1E0
F1E0
F1E0
F1E0
71C0
7FC0
3F80
7FC0
7FC0
F1E0
F1E0
F1E0
F1E0
F1E0
FFE0
7FC0
7FC0
1F00
ENDCHAR

STARTCHAR nine
ENCODING 57
SWIDTH 360 0
DWIDTH 14 0
BBX 11 22 1 0
BITMAP
1F00
7FC0
7FC0
FFE0
F1E0
F1E0
F1E0
F1E0
F1E0
F1E0
F1E0
FFE0
7FE0
7FE0
1DE0
01C0
03C0
07C0
1F80
7F00
7E00
7800
ENDCHAR

STARTCHAR colon
ENCODING 58
SWIDTH 360 0
DWIDTH 14 0
BBX 6 16 4 0
BITMAP
78
FC
FC
FC
78
00
00
00
00
00
00
78
FC
FC
FC
78
ENDCHAR

STARTCHAR semicolon
ENCODING 59
SWIDTH 360 0
DWIDTH 14 0
BBX 7 20 3 -4
BITMAP
3C
7E
7E
7E
3C
00
00
00
00
00
00
3E
3C
3C
78
78
70
F0
E0
E0
ENDCHAR

STARTCHAR less
ENCODING 60
SWIDTH 360 0
DWIDTH 14 0
BBX 13 16 0 2
BITMAP
0008
0038
00F8
03F8
0FE0
3F80
FE00
F800
F800
FE00
3F80
0FE0
03F8
00F8
0038
0008
ENDCHAR

STARTCHAR equal
ENCODING 61
SWIDTH 360 0
DWIDTH 14 0
BBX 12 12 1 4
BITMAP
FFF0
FFF0
FFF0
FFF0
0000
0000
0000
0000
FFF0
FFF0
FFF0
FFF0
ENDCHAR

STARTCHAR greater
ENCODING 62
SWIDTH 360 0
DWIDTH 14 0
BBX 13 16 0 2
BITMAP
8000
E000
F800
FE00
3F80
0FE0
03F8
00F8
00F8
03F8
0FE0
3F80
FE00
F800
E000
8000
ENDCHAR

STARTCHAR question
ENCODING 63
SWIDTH 360 0
DWIDTH 14 0
BBX 12 22 1 0
BITMAP
1F80
7FE0
7FE0
F9F0
E0F0
E0F0
01F0
03E0
07C0
0780
0F00
0F00
0F00
0F00
0000
0000
0000
0F00
1F80
1F80
1F80
0F00
ENDCHAR

STARTCHAR at
ENCODING 64
SWIDTH 360 0
DWIDTH 14 0
BBX 12 28 1 -4
BITMAP
1F80
7FC0
7FE0
FFE0
F0E0
E0E0
E0E0
E0E0
E7E0
E7E0
EFE0
EFE0
EEE0
EEE0
EEE0
EEE0
EFF0
EFF0
E7B0
E7B0
E000
E000
E030
F030
7DF0
7FF0
3FE0
0F80
ENDCHAR

STARTCHAR A
ENCODING 65
SWIDTH 360 0
DWIDTH 14 0
BBX 12 22 1 0
BITMAP
0F00
1F80
1F80
3FC0
3FC0
79E0
79E0
F0F0
F0F0
F0F0
F0F0
F0F0
FFF0
FFF0
FFF0
FFF0
F0F0
F0F0
F0F0
F0F0
F0F0
F0F0
ENDCHAR

STARTCHAR B
ENCODING 66
SWIDTH 360 0
DWIDTH 14 0
BBX 12 22 1 0
BITMAP
FF80
FFE0
FFE0
FFF0
F0F0
F0F0
F0F0
F0F0
FFF0
FFE0
FFC0
FFE0
F0E0
F0F0
F0F0
F0F0
F0F0
F0F0
FFF0
FFE0
FFE0
FF80
ENDCHAR

STARTCHAR C
ENCODING 67
SWIDTH 360 0
DWIDTH 14 0
BBX 12 22 1 0
BITMAP
0E70
3F70
3FF0
7FF0
78F0
F070
F070
F070
F000
F000
F000
F000
F000
F000
F000
F000
F070
78F0
7FF0
3FE0
3FC0
0F80
ENDCHAR

STARTCHAR D
ENCODING 68
SWIDTH 360 0
DWIDTH 14 0
BBX 12 22 1 0
BITMAP
FF00
FFC0
FFE0
FFE0
F1F0
F0F0
F0F0
F0F0
F0F0
F0F0
F0F0
F0F0
F0F0
F0F0
F0F0
F0F0
F0F0
F1F0
FFE0
FFE0
FFC0
FF00
ENDCHAR

STARTCHAR E
ENCODING 69
SWIDTH 360 0
DWIDTH 14 0
BBX 11 22 1 0
BITMAP
FFE0
FFE0
FFE0
FFE0
F000
F000
F000
F000
FFC0
FFC0
FFC0
FFC0
F000
F000
F000
F000
F000
F000
FFE0
FFE0
FFE0
FFE0
ENDCHAR

STARTCHAR F
ENCODING 70
SWIDTH 360 0
DWIDTH 14 0
BBX 11 22 1 0
BITMAP
FFE0
FFE0
FFE0
FFE0
F000
F000
F000
F000
FFC0
FFC0
FFC0
FFC0
F000
F000
F000
F000
F000
F000
F000
F000
F000
F000
ENDCHAR

STARTCHAR G
ENCODING 71
SWIDTH 360 0
DWIDTH 14 0
BBX 12 22 1 0
BITMAP
0E70
3F70
3FF0
7FF0
78F0
F070
F070
F070
F000
F000
F3F0
F3F0
F3F0
F3F0
F0F0
F0F0
F0F0
78F0
7FF0
3FE0
3FE0
0F80
ENDCHAR

STARTCHAR H
ENCODING 72
SWIDTH 360 0
DWIDTH 14 0
BBX 12 22 1 0
BITMAP
F0F0
F0F0
F0F0
F0F0
F0F0
F0F0
F0F0
F0F0
FFF0
FFF0
FFF0
FFF0
F0F0
F0F0
F0F0
F0F0
F0F0
F0F0
F0F0
F0F0
F0F0
F0F0
ENDCHAR

STARTCHAR I
ENCODING 73
SWIDTH 360 0
DWIDTH 14 0
BBX 10 22 2 0
BITMAP
FFC0
FFC0
FFC0
FFC0
1E00
1E00
1E00
1E00
1E00
1E00
1E00
1E00
1E00
1E00
1E00
1E00
1E00
1E00
FFC0
FFC0
FFC0
FFC0
ENDCHAR

STARTCHAR J
ENCODING 74
SWIDTH 360 0
DWIDTH 14 0
BBX 13 22 0 0
BITMAP
1FF8
1FF8
1FF8
1FF8
01E0
01E0
01E0
01E0
01E0
01E0
01E0
01E0
E1E0
E1E0
E1E0
E1E0
E1E0
E1E0
FFE0
FFC0
7FC0
3F80
ENDCHAR

STARTCHAR K
ENCODING 75
SWIDTH 360 0
DWIDTH 14 0
BBX 12 22 1 0
BITMAP
F0F0
F0F0
F1F0
F1F0
F3C0
F3C0
F780
F780
FF00
FF00
FF00
FF80
F780
F3C0
F3C0
F1E0
F1E0
F1E0
F0F0
F0F0
F0F0
F0F0
ENDCHAR

STARTCHAR L
ENCODING 76
SWIDTH 360 0
DWIDTH 14 0
BBX 12 22 1 0
BITMAP
FF00
FF00
FF00
FF00
3C00
3C00
3C00
3C00
3C00
3C00
3C00
3C00
3C00
3C00
3C00
3C00
3C30
3C30
FFF0
FFF0
FFF0
FFF0
ENDCHAR

STARTCHAR M
ENCODING 77
SWIDTH 360 0
DWIDTH 14 0
BBX 12 22 1 0
BITMAP
E070
E070
F0F0
F0F0
F0F0
F0F0
F9F0
F9F0
F9F0
FFF0
FFF0
FFF0
F6F0
F6F0
F6F0
F6F0
F0F0
F0F0
F0F0
F0F0
F0F0
F0F0
ENDCHAR

STARTCHAR N
ENCODING 78
SWIDTH 360 0
DWIDTH 14 0
BBX 12 22 1 0
BITMAP
F0F0
F0F0
F8F0
F8F0
F8F0
F8F0
F8F0
FCF0
FCF0
FCF0
F6F0
F6F0
F6F0
F7F0
F3F0
F3F0
F3F0
F1F0
F1F0
F1F0
F0F0
F0F0
ENDCHAR

STARTCHAR O
ENCODING 79
SWIDTH 360 0
DWIDTH 14 0
BBX 12 22 1 0
BITMAP
1F80
3FC0
7FE0
7FE0
F9F0
F0F0
F0F0
F0F0
F0F0
F0F0
F0F0
F0F0
F0F0
F0F0
F0F0
F0F0
F0F0
F9F0
7FE0
7FE0
3FC0
1F80
ENDCHAR

STARTCHAR P
ENCODING 80
SWIDTH 360 0
DWIDTH 14 0
BBX 12 22 1 0
BITMAP
FF80
FFE0
FFE0
FFF0
F0F0
F0F0
F0F0
F0F0
F0F0
F0F0
FFF0
FFE0
FFE0
FF80
F000
F000
F000
F000
F000
F000
F000
F000
ENDCHAR

STARTCHAR Q
ENCODING 81
SWIDTH 360 0
DWIDTH 14 0
BBX 12 30 1 -8
BITMAP
0F00
3FC0
3FC0
7FE0
79E0
F0F0
F0F0
F0F0
F0F0
F0F0
F0F0
F0F0
F0F0
F0F0
F0F0
F0F0
F0F0
79E0
7FE0
3FC0
3FC0
1F00
3800
3800
7C30
7E30
EFF0
E7F0
C3E0
C1C0
ENDCHAR

STARTCHAR R
ENCODING 82
SWIDTH 360 0
DWIDTH 14 0
BBX 12 22 1 0
BITMAP
FF80
FFE0
FFE0
FFF0
F0F0
F0F0
F0F0
F0F0
F0F0
F0F0
FFE0
FFE0
FF80
FF80
F3C0
F3C0
F1C0
F1E0
F1E0
F0F0
F0F0
F070
ENDCHAR

STARTCHAR S
ENCODING 83
SWIDTH 360 0
DWIDTH 14 0
BBX 12 22 1 0
BITMAP
1F70
7FF0
7FF0
FFF0
F070
F070
F000
F000
F000
FC00
7F80
7FE0
1FE0
01F0
00F0
00F0
E0F0
E0F0
FFF0
FFE0
FFE0
CF80
ENDCHAR

STARTCHAR T
ENCODING 84
SWIDTH 360 0
DWIDTH 14 0
BBX 12 22 1 0
BITMAP
FFF0
FFF0
FFF0
FFF0
CF30
CF30
0F00
0F00
0F00
0F00
0F00
0F00
0F00
0F00
0F00
0F00
0F00
0F00
1F80
1F80
1F80
1F80
ENDCHAR

STARTCHAR U
ENCODING 85
SWIDTH 360 0
DWIDTH 14 0
BBX 12 22 1 0
BITMAP
F0F0
F0F0
F0F0
F0F0
F0F0
F0F0
F0F0
F0F0
F0F0
F0F0
F0F0
F0F0
F0F0
F0F0
F0F0
F0F0
F0F0
F0F0
FFF0
7FE0
7FE0
1F80
ENDCHAR

STARTCHAR V
ENCODING 86
SWIDTH 360 0
DWIDTH 14 0
BBX 12 22 1 0
BITMAP
F0F0
F0F0
F0F0
F0F0
F0F0
F0F0
F0F0
F0F0
F0F0
F0F0
F0F0
F0F0
F0F0
F0F0
79E0
79E0
39C0
3FC0
1F80
1F80
0F00
0F00
ENDCHAR

STARTCHAR W
ENCODING 87
SWIDTH 360 0
DWIDTH 14 0
BBX 12 22 1 0
BITMAP
F0F0
F0F0
F0F0
F0F0
F0F0
F0F0
F0F0
F0F0
F6F0
F6F0
F6F0
F6F0
FFF0
FFF0
79E0
F9F0
79E0
70E0
70E0
70E0
70E0
70E0
ENDCHAR

STARTCHAR X
ENCODING 88
SWIDTH 360 0
DWIDTH 14 0
BBX 12 22 1 0
BITMAP
F0F0
F0F0
F0F0
F0F0
79E0
79E0
3FC0
3FC0
1F80
1F80
0F00
0F00
1F80
1F80
3FC0
3FC0
79E0
79E0
F0F0
F0F0
F0F0
F0F0
ENDCHAR

STARTCHAR Y
ENCODING 89
SWIDTH 360 0
DWIDTH 14 0
BBX 12 22 1 0
BITMAP
F0F0
F0F0
F0F0
F0F0
70E0
70E0
79E0
39C0
39C0
39C0
1F80
1F80
1F80
0F00
0F00
0F00
0F00
0F00
1F80
1F80
1F80
1F80
ENDCHAR

STARTCHAR Z
ENCODING 90
SWIDTH 360 0
DWIDTH 14 0
BBX 12 22 1 0
BITMAP
FFF0
FFF0
FFF0
FFF0
C1E0
C1E0
03C0
03C0
0780
0780
0F00
0F00
1E00
1E00
3C00
3C00
7830
7830
FFF0
FFF0
FFF0
FFF0
ENDCHAR

STARTCHAR bracketleft
ENCODING 91
SWIDTH 360 0
DWIDTH 14 0
BBX 6 32 4 -4
BITMAP
FC
FC
FC
FC
F0
F0
F0
F0
F0
F0
F0
F0
F0
F0
F0
F0
F0
F0
F0
F0
F0
F0
F0
F0
F0
F0
F0
F0
FC
FC
FC
FC
ENDCHAR

STARTCHAR backslash
ENCODING 92
SWIDTH 360 0
DWIDTH 14 0
BBX 11 27 1 -2
BITMAP
F000
F000
F000
7800
7800
7800
7800
3C00
3C00
3C00
1E00
1E00
1E00
1E00
0F00
0F00
0F00
0780
0780
0780
03C0
03C0
03C0
03C0
01E0
01E0
01E0
ENDCHAR

STARTCHAR bracketright
ENCODING 93
SWIDTH 360 0
DWIDTH 14 0
BBX 6 32 4 -4
BITMAP
FC
FC
FC
FC
3C
3C
3C
3C
3C
3C
3C
3C
3C
3C
3C
3C
3C
3C
3C
3C
3C
3C
3C
3C
3C
3C
3C
3C
FC
FC
FC
FC
ENDCHAR

STARTCHAR asciicircum
ENCODING 94
SWIDTH 360 0
DWIDTH 14 0
BBX 14 7 0 11
BITMAP
0300
0780
0FC0
1FE0
3CF0
7878
F03C
ENDCHAR

STARTCHAR underscore
ENCODING 95
SWIDTH 360 0
DWIDTH 14 0
BBX 14 4 0 0
BITMAP
FFFC
FFFC
FFFC
FFFC
ENDCHAR

STARTCHAR quoteleft
ENCODING 96
SWIDTH 360 0
DWIDTH 14 0
BBX 8 8 3 20
BITMAP
F8
78
3C
3C
1E
1E
0F
0F
ENDCHAR

STARTCHAR a
ENCODING 97
SWIDTH 360 0
DWIDTH 14 0
BBX 12 18 1 0
BITMAP
3FC0
7FE0
7FF0
7FF0
00F0
00F0
1FF0
7FF0
7FF0
FFF0
F0F0
F0F0
F0F0
F0F0
FFF0
7FF0
7EF0
1CF0
ENDCHAR

STARTCHAR b
ENCODING 98
SWIDTH 360 0
DWIDTH 14 0
BBX 12 24 1 0
BITMAP
F000
F000
F000
F000
F000
F000
F380
F7E0
FFE0
FFF0
F9F0
F0F0
F0F0
F0F0
F0F0
F0F0
F0F0
F0F0
F0F0
F9F0
FFF0
FFE0
F7E0
F380
ENDCHAR

STARTCHAR c
ENCODING 99
SWIDTH 360 0
DWIDTH 14 0
BBX 12 18 1 0
BITMAP
1E70
7F70
7FF0
FFF0
F0F0
F070
F070
F000
F000
F000
F000
F000
F070
F070
FFF0
7FE0
7FE0
1F80
ENDCHAR

STARTCHAR d
ENCODING 100
SWIDTH 360 0
DWIDTH 14 0
BBX 12 24 1 0
BITMAP
00F0
00F0
00F0
00F0
00F0
00F0
1CF0
7EF0
7FF0
FFF0
F9F0
F0F0
F0F0
F0F0
F0F0
F0F0
F0F0
F0F0
F0F0
F9F0
FFF0
7FF0
7EF0
1CF0
ENDCHAR

STARTCHAR e
ENCODING 101
SWIDTH 360 0
DWIDTH 14 0
BBX 12 18 1 0
BITMAP
1F80
7FE0
7FE0
FFF0
F0F0
F0F0
FFF0
FFF0
FFF0
FFF0
F000
F000
F070
F070
FFF0
7FE0
7FE0
1F80
ENDCHAR

STARTCHAR f
ENCODING 102
SWIDTH 360 0
DWIDTH 14 0
BBX 13 24 0 0
BITMAP
03E0
0FF8
0FF8
1FF8
1E00
1E00
FFF0
FFF0
FFF0
FFF0
1E00
1E00
1E00
1E00
1E00
1E00
1E00
1E00
1E00
1E00
FFF0
FFF0
FFF0
FFF0
ENDCHAR

STARTCHAR g
ENCODING 103
SWIDTH 360 0
DWIDTH 14 0
BBX 12 26 1 -8
BITMAP
1CF0
7EF0
7FF0
FFF0
F9F0
F0F0
F0F0
F0F0
F0F0
F0F0
F0F0
F0F0
F0F0
F9F0
FFF0
7FF0
7EF0
1CF0
00F0
00F0
00F0
00F0
3FF0
3FE0
3FE0
3F80
ENDCHAR

STARTCHAR h
ENCODING 104
SWIDTH 360 0
DWIDTH 14 0
BBX 12 24 1 0
BITMAP
F000
F000
F000
F000
F000
F000
F3C0
F7E0
FFE0
FFF0
F8F0
F0F0
F0F0
F0F0
F0F0
F0F0
F0F0
F0F0
F0F0
F0F0
F0F0
F0F0
F0F0
F0F0
ENDCHAR

STARTCHAR i
ENCODING 105
SWIDTH 360 0
DWIDTH 14 0
BBX 12 26 1 0
BITMAP
0F00
0F00
0F00
0F00
0F00
0F00
0000
0000
FF00
FF00
FF00
FF00
0F00
0F00
0F00
0F00
0F00
0F00
0F00
0F00
0F00
0F00
FFF0
FFF0
FFF0
FFF0
ENDCHAR

STARTCHAR j
ENCODING 106
SWIDTH 360 0
DWIDTH 14 0
BBX 8 34 3 -8
BITMAP
0F
0F
0F
0F
0F
0F
00
00
FF
FF
FF
FF
0F
0F
0F
0F
0F
0F
0F
0F
0F
0F
0F
0F
0F
0F
0F
0F
0F
0F
FF
FE
FE
F8
ENDCHAR

STARTCHAR k
ENCODING 107
SWIDTH 360 0
DWIDTH 14 0
BBX 12 24 1 0
BITMAP
F000
F000
F000
F000
F000
F000
F0F0
F0F0
F1F0
F1F0
F3C0
F3C0
F780
F780
FF00
FF00
FF80
FF80
F3C0
F3C0
F1F0
F1F0
F0F0
F0F0
ENDCHAR

STARTCHAR l
ENCODING 108
SWIDTH 360 0
DWIDTH 14 0
BBX 12 24 1 0
BITMAP
FF00
FF00
FF00
FF00
0F00
0F00
0F00
0F00
0F00
0F00
0F00
0F00
0F00
0F00
0F00
0F00
0F00
0F00
0F00
0F00
FFF0
FFF0
FFF0
FFF0
ENDCHAR

STARTCHAR m
ENCODING 109
SWIDTH 360 0
DWIDTH 14 0
BBX 13 18 0 0
BITMAP
DEF0
DEF0
FFF8
FFF8
E738
E738
E738
E738
E738
E738
E738
E738
E738
E738
E738
E738
E738
E738
ENDCHAR

STARTCHAR n
ENCODING 110
SWIDTH 360 0
DWIDTH 14 0
BBX 12 18 1 0
BITMAP
F3C0
F7E0
FFE0
FFF0
F8F0
F0F0
F0F0
F0F0
F0F0
F0F0
F0F0
F0F0
F0F0
F0F0
F0F0
F0F0
F0F0
F0F0
ENDCHAR

STARTCHAR o
ENCODING 111
SWIDTH 360 0
DWIDTH 14 0
BBX 12 18 1 0
BITMAP
1F80
7FE0
7FE0
FFF0
F0F0
F0F0
F0F0
F0F0
F0F0
F0F0
F0F0
F0F0
F0F0
F0F0
FFF0
7FE0
7FE0
1F80
ENDCHAR

STARTCHAR p
ENCODING 112
SWIDTH 360 0
DWIDTH 14 0
BBX 12 26 1 -8
BITMAP
F380
F7E0
FFE0
FFF0
F9F0
F0F0
F0F0
F0F0
F0F0
F0F0
F0F0
F0F0
F0F0
F9F0
FFF0
FFE0
F7E0
F380
F000
F000
F000
F000
F000
F000
F000
F000
ENDCHAR

STARTCHAR q
ENCODING 113
SWIDTH 360 0
DWIDTH 14 0
BBX 12 26 1 -8
BITMAP
1CF0
7EF0
7FF0
FFF0
F9F0
F0F0
F0F0
F0F0
F0F0
F0F0
F0F0
F0F0
F0F0
F9F0
FFF0
7FF0
7EF0
1CF0
00F0
00F0
00F0
00F0
00F0
00F0
00F0
00F0
ENDCHAR

STARTCHAR r
ENCODING 114
SWIDTH 360 0
DWIDTH 14 0
BBX 12 18 1 0
BITMAP
FCE0
FDF0
FFF0
FFF0
3E70
3C00
3C00
3C00
3C00
3C00
3C00
3C00
3C00
3C00
FF00
FF00
FF00
FF00
ENDCHAR

STARTCHAR s
ENCODING 115
SWIDTH 360 0
DWIDTH 14 0
BBX 12 18 1 0
BITMAP
1FB0
7FF0
7FF0
FFF0
F070
F070
F000
FE00
7FC0
3FE0
07F0
00F0
C0F0
C0F0
FFF0
FFF0
FFE0
DFC0
ENDCHAR

STARTCHAR t
ENCODING 116
SWIDTH 360 0
DWIDTH 14 0
BBX 12 24 1 0
BITMAP
3C00
3C00
3C00
3C00
3C00
3C00
FFF0
FFF0
FFF0
FFF0
3C00
3C00
3C00
3C00
3C00
3C00
3C00
3C00
3C70
3C70
3FF0
1FE0
1FE0
0780
ENDCHAR

STARTCHAR u
ENCODING 117
SWIDTH 360 0
DWIDTH 14 0
BBX 12 18 1 0
BITMAP
F0F0
F0F0
F0F0
F0F0
F0F0
F0F0
F0F0
F0F0
F0F0
F0F0
F0F0
F0F0
F0F0
F1F0
FFF0
FFF0
7EF0
3CF0
ENDCHAR

STARTCHAR v
ENCODING 118
SWIDTH 360 0
DWIDTH 14 0
BBX 12 18 1 0
BITMAP
F0F0
F0F0
F0F0
F0F0
70E0
70E0
79E0
79E0
39C0
39C0
39C0
39C0
1F80
1F80
1F80
1F80
0F00
0F00
ENDCHAR

STARTCHAR w
ENCODING 119
SWIDTH 360 0
DWIDTH 14 0
BBX 14 18 0 0
BITMAP
F03C
F03C
F03C
F03C
F03C
F33C
F33C
F33C
F33C
F7BC
77B8
7CF8
7CF8
7CF8
3CF0
3870
3870
3870
ENDCHAR

STARTCHAR x
ENCODING 120
SWIDTH 360 0
DWIDTH 14 0
BBX 12 18 1 0
BITMAP
F0F0
F0F0
F9F0
79E0
39C0
3FC0
1F80
1F80
0F00
0F00
1F80
1F80
3FC0
39C0
79E0
F9F0
F0F0
F0F0
ENDCHAR

STARTCHAR y
ENCODING 121
SWIDTH 360 0
DWIDTH 14 0
BBX 12 26 1 -8
BITMAP
F0F0
F0F0
F0F0
F0F0
70E0
70E0
79E0
79E0
39C0
39C0
39C0
39C0
3980
1F80
1F80
1F00
1F00
0F00
0E00
0E00
0E00
0E00
3F00
3F00
3F00
3F00
ENDCHAR

STARTCHAR z
ENCODING 122
SWIDTH 360 0
DWIDTH 14 0
BBX 12 18 1 0
BITMAP
FFF0
FFF0
FFF0
FFF0
01E0
01E0
03C0
07C0
0780
0F00
0F00
1E00
3E00
3C00
7FF0
FFF0
FFF0
FFF0
ENDCHAR

STARTCHAR braceleft
ENCODING 123
SWIDTH 360 0
DWIDTH 14 0
BBX 9 32 2 -4
BITMAP
0780
0F80
1F80
1F80
1C00
1C00
1C00
1C00
1C00
1C00
1C00
1C00
1C00
3C00
3C00
F800
F800
3C00
3C00
1C00
1C00
1C00
1C00
1C00
1C00
1C00
1C00
1C00
1F80
1F80
0F80
0780
ENDCHAR

STARTCHAR bar
ENCODING 124
SWIDTH 360 0
DWIDTH 14 0
BBX 4 31 5 -3
BITMAP
F0
F0
F0
F0
F0
F0
F0
F0
F0
F0
F0
F0
F0
F0
F0
F0
F0
F0
F0
F0
F0
F0
F0
F0
F0
F0
F0
F0
F0
F0
F0
ENDCHAR

STARTCHAR braceright
ENCODING 125
SWIDTH 360 0
DWIDTH 14 0
BBX 9 32 2 -4
BITMAP
F000
F800
FC00
FC00
1C00
1C00
1C00
1C00
1C00
1C00
1C00
1C00
1C00
1E00
1E00
0F80
0F80
1E00
1E00
1C00
1C00
1C00
1C00
1C00
1C00
1C00
1C00
1C00
FC00
FC00
F800
F000
ENDCHAR

STARTCHAR asciitilde
ENCODING 126
SWIDTH 360 0
DWIDTH 14 0
BBX 12 6 1 12
BITMAP
3830
7C30
FFF0
FFF0
C3E0
C1C0
ENDCHAR

STARTCHAR OE
ENCODING 128
SWIDTH 360 0
DWIDTH 14 0
BBX 12 22 1 0
BITMAP
1FF0
3FF0
7FF0
7FF0
F3C0
F3C0
F3C0
F3C0
F3F0
F3F0
F3F0
F3F0
F3C0
F3C0
F3C0
F3C0
F3C0
F3C0
7FF0
7FF0
3FF0
1FF0
ENDCHAR

STARTCHAR oe
ENCODING 129
SWIDTH 360 0
DWIDTH 14 0
BBX 14 18 0 0
BITMAP
3CF0
3CF0
7FFC
7FFC
E79C
E79C
E7FC
E7FC
E7FC
E7FC
E780
E780
E79C
E79C
7FFC
7FFC
3CF0
3CF0
ENDCHAR

STARTCHAR Ydieresis
ENCODING 130
SWIDTH 360 0
DWIDTH 14 0
BBX 12 29 1 0
BITMAP
6060
F0F0
F0F0
F0F0
6060
0000
0000
F0F0
F0F0
F0F0
F0F0
70E0
70E0
79E0
39C0
39C0
39C0
1F80
1F80
1F80
0F00
0F00
0F00
0F00
0F00
3FC0
3FC0
3FC0
3FC0
ENDCHAR

STARTCHAR Error
ENCODING 159
SWIDTH 360 0
DWIDTH 14 0
BBX 14 36 0 -7
BITMAP
1FE0
7FF0
7FF8
FFFC
FFFC
FCFC
FCFC
FCFC
FC00
FC00
FC00
FC00
7E00
7E00
3F00
3F00
1F80
1F80
1F80
1F80
1F80
1F80
1F80
1F80
0000
0000
0000
0F80
0F80
1FC0
1FC0
1FC0
1FC0
1FC0
0F80
0F80
ENDCHAR

STARTCHAR exclamdown
ENCODING 161
SWIDTH 360 0
DWIDTH 14 0
BBX 6 22 4 -1
BITMAP
78
FC
FC
FC
78
00
00
00
78
78
78
78
78
78
78
78
78
78
78
78
78
78
ENDCHAR

STARTCHAR cent
ENCODING 162
SWIDTH 360 0
DWIDTH 14 0
BBX 12 24 1 -2
BITMAP
0700
0700
0700
0700
1FB0
7FB0
7FF0
FFF0
F070
F070
F000
F000
F000
F000
F070
F070
FFF0
7FF0
7FE0
1FC0
0E00
0E00
0E00
0E00
ENDCHAR

STARTCHAR sterling
ENCODING 163
SWIDTH 360 0
DWIDTH 14 0
BBX 12 22 1 0
BITMAP
07C0
1FE0
1FF0
3FF0
3C70
3C70
3C00
3C00
3C00
FFC0
FFC0
FFC0
FFC0
1E00
1E00
1E00
3C30
3C30
7FF0
FFE0
E7E0
E3C0
ENDCHAR

STARTCHAR currency
ENCODING 164
SWIDTH 360 0
DWIDTH 14 0
BBX 12 18 1 1
BITMAP
E070
F0F0
FFF0
7FE0
3FC0
7FE0
70E0
F0F0
F0F0
F0F0
F0F0
70E0
7FE0
3FC0
7FE0
FFF0
F0F0
E070
ENDCHAR

STARTCHAR yen
ENCODING 165
SWIDTH 360 0
DWIDTH 14 0
BBX 12 22 1 0
BITMAP
F0F0
F0F0
F0F0
F0F0
70E0
70E0
79E0
39C0
F9F0
F9F0
FFF0
1F80
0F00
FFF0
FFF0
FFF0
0F00
0F00
3FC0
3FC0
3FC0
3FC0
ENDCHAR

STARTCHAR brokenbar
ENCODING 166
SWIDTH 360 0
DWIDTH 14 0
BBX 4 31 5 -3
BITMAP
F0
F0
F0
F0
F0
F0
F0
F0
F0
F0
F0
F0
F0
00
00
00
00
00
F0
F0
F0
F0
F0
F0
F0
F0
F0
F0
F0
F0
F0
ENDCHAR

STARTCHAR section
ENCODING 167
SWIDTH 360 0
DWIDTH 14 0
BBX 12 26 1 -4
BITMAP
07F0
1FF0
1FF0
3FF0
3C30
3C30
3C00
3E00
3F00
7F80
F7C0
F3E0
F1E0
F0F0
F8F0
7CF0
3EF0
1FF0
0FE0
07E0
C3C0
C3C0
FFC0
FFC0
FF80
FF00
ENDCHAR

STARTCHAR dieresis
ENCODING 168
SWIDTH 360 0
DWIDTH 14 0
BBX 12 5 1 22
BITMAP
6060
F0F0
F0F0
F0F0
6060
ENDCHAR

STARTCHAR copyright
ENCODING 169
SWIDTH 360 0
DWIDTH 14 0
BBX 14 22 0 0
BITMAP
0FC0
0FC0
3FF0
3FF0
F03C
F03C
C78C
CFCC
CFCC
CC0C
CC0C
CC0C
CC0C
CFCC
CFCC
C78C
F03C
F03C
3FF0
3FF0
0FC0
0FC0
ENDCHAR

STARTCHAR ordfeminine
ENCODING 170
SWIDTH 360 0
DWIDTH 14 0
BBX 12 20 1 2
BITMAP
3FC0
3FE0
3FF0
3FF0
00F0
00F0
3FF0
7FF0
FFF0
F0F0
F0F0
FFF0
7FF0
3F70
0000
0000
FFF0
FFF0
FFF0
FFF0
ENDCHAR

STARTCHAR guillemotleft
ENCODING 171
SWIDTH 360 0
DWIDTH 14 0
BBX 12 14 1 0
BITMAP
1C70
1C70
38E0
38E0
71C0
71C0
F3C0
F3C0
71C0
71C0
38E0
38E0
1C70
1C70
ENDCHAR

STARTCHAR logicalnot
ENCODING 172
SWIDTH 360 0
DWIDTH 14 0
BBX 12 10 1 4
BITMAP
FFF0
FFF0
FFF0
FFF0
00F0
00F0
00F0
00F0
00F0
00F0
ENDCHAR

STARTCHAR hyphen
ENCODING 173
SWIDTH 360 0
DWIDTH 14 0
BBX 8 4 3 6
BITMAP
FF
FF
FF
FF
ENDCHAR

STARTCHAR registered
ENCODING 174
SWIDTH 360 0
DWIDTH 14 0
BBX 14 22 0 0
BITMAP
0FC0
0FC0
3FF0
3FF0
F03C
F03C
CF8C
CFCC
CCCC
CCCC
CFCC
CF8C
CCCC
CCCC
CCCC
CCCC
F03C
F03C
3FF0
3FF0
0FC0
0FC0
ENDCHAR

STARTCHAR macron
ENCODING 175
SWIDTH 360 0
DWIDTH 14 0
BBX 8 4 3 22
BITMAP
FF
FF
FF
FF
ENDCHAR

STARTCHAR degree
ENCODING 176
SWIDTH 360 0
DWIDTH 14 0
BBX 11 11 1 12
BITMAP
1F00
3F80
7FC0
F1E0
E0E0
E0E0
E0E0
F1E0
7FC0
3F80
1F00
ENDCHAR

STARTCHAR plusminus
ENCODING 177
SWIDTH 360 0
DWIDTH 14 0
BBX 12 22 1 0
BITMAP
0F00
0F00
0F00
0F00
0F00
0F00
FFF0
FFF0
FFF0
FFF0
0F00
0F00
0F00
0F00
0F00
0F00
0000
0000
FFF0
FFF0
FFF0
FFF0
ENDCHAR

STARTCHAR twosuperior
ENCODING 178
SWIDTH 360 0
DWIDTH 14 0
BBX 8 14 3 8
BITMAP
FC
FE
FF
FF
0F
0E
1E
3C
78
F0
FF
FF
FF
FF
ENDCHAR

STARTCHAR threesuperior
ENCODING 179
SWIDTH 360 0
DWIDTH 14 0
BBX 8 14 3 8
BITMAP
FC
FE
FF
FF
0F
0E
7C
7C
0E
0F
FF
FF
FE
FC
ENDCHAR

STARTCHAR acute
ENCODING 180
SWIDTH 360 0
DWIDTH 14 0
BBX 8 6 3 20
BITMAP
06
0F
1F
3E
78
E0
ENDCHAR

STARTCHAR mu
ENCODING 181
SWIDTH 360 0
DWIDTH 14 0
BBX 12 26 1 -8
BITMAP
3CF0
3CF0
3CF0
3CF0
3CF0
3CF0
38E0
38E0
79E0
79E0
79E0
79E0
79E0
79E0
7FF0
7FF0
7F70
7F70
F000
F000
F000
F000
F000
F000
F000
F000
ENDCHAR

STARTCHAR paragraph
ENCODING 182
SWIDTH 360 0
DWIDTH 14 0
BBX 12 26 1 -4
BITMAP
1FF0
1FF0
7E70
7E70
FE70
FE70
FE70
FE70
FE70
FE70
7E70
7E70
1E70
1E70
0E70
0E70
0E70
0E70
0E70
0E70
0E70
0E70
0E70
0E70
0E70
0E70
ENDCHAR

STARTCHAR periodcentered
ENCODING 183
SWIDTH 360 0
DWIDTH 14 0
BBX 6 5 4 6
BITMAP
78
FC
FC
FC
78
ENDCHAR

STARTCHAR cedilla
ENCODING 184
SWIDTH 360 0
DWIDTH 14 0
BBX 8 8 3 -8
BITMAP
18
18
1E
07
C7
FF
FE
3C
ENDCHAR

STARTCHAR onesuperior
ENCODING 185
SWIDTH 360 0
DWIDTH 14 0
BBX 8 14 3 8
BITMAP
FC
FC
3C
3C
3C
3C
3C
3C
3C
3C
3C
3C
FF
FF
ENDCHAR

STARTCHAR ordmasculine
ENCODING 186
SWIDTH 360 0
DWIDTH 14 0
BBX 12 20 1 2
BITMAP
1F80
3FC0
7FE0
7FE0
F0F0
F0F0
F0F0
F0F0
F0F0
F0F0
7FE0
7FE0
3FC0
1F80
0000
0000
FFF0
FFF0
FFF0
FFF0
ENDCHAR

STARTCHAR guillemotright
ENCODING 187
SWIDTH 360 0
DWIDTH 14 0
BBX 12 14 1 0
BITMAP
E380
E380
71C0
71C0
38E0
38E0
3CF0
3CF0
38E0
38E0
71C0
71C0
E380
E380
ENDCHAR

STARTCHAR onequarter
ENCODING 188
SWIDTH 360 0
DWIDTH 14 0
BBX 14 31 0 -8
BITMAP
7E00
7E00
7E00
1E00
1E00
1E00
1E00
1E00
1E00
1E00
7F80
7F80
7F9C
007C
03FC
0FE0
3F80
FC00
F078
C0F8
01F8
03F8
0778
0E78
0FFC
0FFC
0FFC
0078
0078
0078
0078
ENDCHAR

STARTCHAR onehalf
ENCODING 189
SWIDTH 360 0
DWIDTH 14 0
BBX 14 31 0 -8
BITMAP
7E00
7E00
7E00
1E00
1E00
1E00
1E00
1E00
1E00
1E00
7F80
7F80
7F9C
007C
03FC
0FE0
3F80
FC00
F3F0
C3F8
03FC
03FC
003C
003C
0078
00F0
01E0
03FC
03FC
03FC
03FC
ENDCHAR

STARTCHAR threequarters
ENCODING 190
SWIDTH 360 0
DWIDTH 14 0
BBX 14 31 0 -8
BITMAP
7C00
7E00
7F00
7F00
0F00
3E00
3E00
0F00
0F00
7F00
7F00
7E00
7C1C
007C
03FC
0FE0
3F80
FC00
F078
C0F8
01F8
03F8
0778
0E78
0FFC
0FFC
0FFC
0078
0078
0078
0078
ENDCHAR

STARTCHAR questiondown
ENCODING 191
SWIDTH 360 0
DWIDTH 14 0
BBX 12 22 1 -1
BITMAP
0F00
1F80
1F80
1F80
0F00
0000
0000
0000
0F00
0F00
0F00
0F00
1E00
3E00
7C00
F800
F070
F070
F9F0
FFF0
7FE0
3FC0
ENDCHAR

STARTCHAR Agrave
ENCODING 192
SWIDTH 360 0
DWIDTH 14 0
BBX 12 30 1 0
BITMAP
1800
3C00
3E00
1F00
0780
01C0
0000
0000
0F00
1F80
1F80
3FC0
3FC0
79E0
79E0
F0F0
F0F0
F0F0
F0F0
F0F0
FFF0
FFF0
FFF0
FFF0
F0F0
F0F0
F0F0
F0F0
F0F0
F0F0
ENDCHAR

STARTCHAR Aacute
ENCODING 193
SWIDTH 360 0
DWIDTH 14 0
BBX 12 30 1 0
BITMAP
00C0
01E0
03E0
07C0
0F00
1C00
0000
0000
0F00
1F80
1F80
3FC0
3FC0
79E0
79E0
F0F0
F0F0
F0F0
F0F0
F0F0
FFF0
FFF0
FFF0
FFF0
F0F0
F0F0
F0F0
F0F0
F0F0
F0F0
ENDCHAR

STARTCHAR Acircumflex
ENCODING 194
SWIDTH 360 0
DWIDTH 14 0
BBX 12 29 1 0
BITMAP
0F00
1F80
3FC0
79E0
70E0
0000
0000
0F00
1F80
1F80
3FC0
3FC0
79E0
79E0
F0F0
F0F0
F0F0
F0F0
F0F0
FFF0
FFF0
FFF0
FFF0
F0F0
F0F0
F0F0
F0F0
F0F0
F0F0
ENDCHAR

STARTCHAR Atilde
ENCODING 195
SWIDTH 360 0
DWIDTH 14 0
BBX 12 29 1 0
BITMAP
1C60
3FE0
7FC0
6380
0000
0000
0000
0F00
1F80
1F80
3FC0
3FC0
79E0
79E0
F0F0
F0F0
F0F0
F0F0
F0F0
FFF0
FFF0
FFF0
FFF0
F0F0
F0F0
F0F0
F0F0
F0F0
F0F0
ENDCHAR

STARTCHAR Adieresis
ENCODING 196
SWIDTH 360 0
DWIDTH 14 0
BBX 12 29 1 0
BITMAP
3060
78F0
78F0
78F0
3060
0000
0000
0F00
1F80
1F80
3FC0
3FC0
79E0
79E0
F0F0
F0F0
F0F0
F0F0
F0F0
FFF0
FFF0
FFF0
FFF0
F0F0
F0F0
F0F0
F0F0
F0F0
F0F0
ENDCHAR

STARTCHAR Aring
ENCODING 197
SWIDTH 360 0
DWIDTH 14 0
BBX 12 28 1 0
BITMAP
0F00
1F80
3FC0
39C0
39C0
39C0
1F80
1F80
1F80
3FC0
3FC0
79E0
79E0
F0F0
F0F0
F0F0
F0F0
F0F0
FFF0
FFF0
FFF0
FFF0
F0F0
F0F0
F0F0
F0F0
F0F0
F0F0
ENDCHAR

STARTCHAR AE
ENCODING 198
SWIDTH 360 0
DWIDTH 14 0
BBX 12 22 1 0
BITMAP
3FF0
3FF0
3FF0
3FF0
3BC0
3BC0
3BC0
3BC0
73F0
73F0
73F0
73F0
7FC0
7FC0
FFC0
FFC0
F3C0
F3C0
F3F0
F3F0
F3F0
F3F0
ENDCHAR

STARTCHAR Ccedilla
ENCODING 199
SWIDTH 360 0
DWIDTH 14 0
BBX 12 30 1 -8
BITMAP
0E70
3F70
3FF0
7FF0
78F0
F070
F070
F070
F000
F000
F000
F000
F000
F000
F000
F000
F070
78F0
7FF0
3FE0
3FC0
0F80
0600
0600
0780
01C0
31C0
3FC0
3F80
0F00
ENDCHAR

STARTCHAR Egrave
ENCODING 200
SWIDTH 360 0
DWIDTH 14 0
BBX 11 30 1 0
BITMAP
1800
3C00
3E00
1F00
0780
01C0
0000
0000
FFE0
FFE0
FFE0
FFE0
F000
F000
F000
F000
FFC0
FFC0
FFC0
FFC0
F000
F000
F000
F000
F000
F000
FFE0
FFE0
FFE0
FFE0
ENDCHAR

STARTCHAR Eacute
ENCODING 201
SWIDTH 360 0
DWIDTH 14 0
BBX 11 30 1 0
BITMAP
00C0
01E0
03E0
07C0
0F00
1C00
0000
0000
FFE0
FFE0
FFE0
FFE0
F000
F000
F000
F000
FFC0
FFC0
FFC0
FFC0
F000
F000
F000
F000
F000
F000
FFE0
FFE0
FFE0
FFE0
ENDCHAR

STARTCHAR Ecircumflex
ENCODING 202
SWIDTH 360 0
DWIDTH 14 0
BBX 11 29 1 0
BITMAP
0F00
1F80
3FC0
79E0
70E0
0000
0000
FFE0
FFE0
FFE0
FFE0
F000
F000
F000
F000
FFC0
FFC0
FFC0
FFC0
F000
F000
F000
F000
F000
F000
FFE0
FFE0
FFE0
FFE0
ENDCHAR

STARTCHAR Edieresis
ENCODING 203
SWIDTH 360 0
DWIDTH 14 0
BBX 12 29 1 0
BITMAP
6060
F0F0
F0F0
F0F0
6060
0000
0000
FFE0
FFE0
FFE0
FFE0
F000
F000
F000
F000
FFC0
FFC0
FFC0
FFC0
F000
F000
F000
F000
F000
F000
FFE0
FFE0
FFE0
FFE0
ENDCHAR

STARTCHAR Igrave
ENCODING 204
SWIDTH 360 0
DWIDTH 14 0
BBX 10 30 2 0
BITMAP
3000
7800
7C00
3E00
0F00
0380
0000
0000
FFC0
FFC0
FFC0
FFC0
1E00
1E00
1E00
1E00
1E00
1E00
1E00
1E00
1E00
1E00
1E00
1E00
1E00
1E00
FFC0
FFC0
FFC0
FFC0
ENDCHAR

STARTCHAR Iacute
ENCODING 205
SWIDTH 360 0
DWIDTH 14 0
BBX 10 30 2 0
BITMAP
0180
03C0
07C0
0F80
1E00
3800
0000
0000
FFC0
FFC0
FFC0
FFC0
1E00
1E00
1E00
1E00
1E00
1E00
1E00
1E00
1E00
1E00
1E00
1E00
1E00
1E00
FFC0
FFC0
FFC0
FFC0
ENDCHAR

STARTCHAR Icircumflex
ENCODING 206
SWIDTH 360 0
DWIDTH 14 0
BBX 10 29 2 0
BITMAP
1E00
3F00
7F80
F3C0
E1C0
0000
0000
FFC0
FFC0
FFC0
FFC0
1E00
1E00
1E00
1E00
1E00
1E00
1E00
1E00
1E00
1E00
1E00
1E00
1E00
1E00
FFC0
FFC0
FFC0
FFC0
ENDCHAR

STARTCHAR Idieresis
ENCODING 207
SWIDTH 360 0
DWIDTH 14 0
BBX 12 29 1 0
BITMAP
6060
F0F0
F0F0
F0F0
6060
0000
0000
7FE0
7FE0
7FE0
7FE0
0F00
0F00
0F00
0F00
0F00
0F00
0F00
0F00
0F00
0F00
0F00
0F00
0F00
0F00
7FE0
7FE0
7FE0
7FE0
ENDCHAR

STARTCHAR Eth
ENCODING 208
SWIDTH 360 0
DWIDTH 14 0
BBX 13 22 0 0
BITMAP
7F80
7FE0
7FF0
7FF0
78F8
7878
7878
7878
FF78
FF78
FF78
FF78
7878
7878
7878
7878
7878
78F8
7FF0
7FF0
7FE0
7F80
ENDCHAR

STARTCHAR Ntilde
ENCODING 209
SWIDTH 360 0
DWIDTH 14 0
BBX 12 29 1 0
BITMAP
1C60
3FE0
7FC0
6380
0000
0000
0000
F0F0
F0F0
F8F0
F8F0
F8F0
F8F0
F8F0
FCF0
FCF0
FCF0
F6F0
F6F0
F6F0
F7F0
F3F0
F3F0
F3F0
F1F0
F1F0
F1F0
F0F0
F0F0
ENDCHAR

STARTCHAR Ograve
ENCODING 210
SWIDTH 360 0
DWIDTH 14 0
BBX 12 30 1 0
BITMAP
1800
3C00
3E00
1F00
0780
01C0
0000
0000
0F00
3FC0
3FC0
7FE0
79E0
F0F0
F0F0
F0F0
F0F0
F0F0
F0F0
F0F0
F0F0
F0F0
F0F0
F0F0
F0F0
79E0
7FE0
3FC0
3FC0
0F00
ENDCHAR

STARTCHAR Oacute
ENCODING 211
SWIDTH 360 0
DWIDTH 14 0
BBX 12 30 1 0
BITMAP
00C0
01E0
03E0
07C0
0F00
1C00
0000
0000
0F00
3FC0
3FC0
7FE0
79E0
F0F0
F0F0
F0F0
F0F0
F0F0
F0F0
F0F0
F0F0
F0F0
F0F0
F0F0
F0F0
79E0
7FE0
3FC0
3FC0
0F00
ENDCHAR

STARTCHAR Ocircumflex
ENCODING 212
SWIDTH 360 0
DWIDTH 14 0
BBX 12 29 1 0
BITMAP
0F00
1F80
3FC0
79E0
70E0
0000
0000
0F00
3FC0
3FC0
7FE0
79E0
F0F0
F0F0
F0F0
F0F0
F0F0
F0F0
F0F0
F0F0
F0F0
F0F0
F0F0
F0F0
79E0
7FE0
3FC0
3FC0
0F00
ENDCHAR

STARTCHAR Otilde
ENCODING 213
SWIDTH 360 0
DWIDTH 14 0
BBX 12 29 1 0
BITMAP
1C60
3FE0
7FC0
6380
0000
0000
0000
0F00
3FC0
3FC0
7FE0
79E0
F0F0
F0F0
F0F0
F0F0
F0F0
F0F0
F0F0
F0F0
F0F0
F0F0
F0F0
F0F0
79E0
7FE0
3FC0
3FC0
0F00
ENDCHAR

STARTCHAR Odieresis
ENCODING 214
SWIDTH 360 0
DWIDTH 14 0
BBX 12 29 1 0
BITMAP
3060
78F0
78F0
78F0
3060
0000
0000
0F00
3FC0
3FC0
7FE0
79E0
F0F0
F0F0
F0F0
F0F0
F0F0
F0F0
F0F0
F0F0
F0F0
F0F0
F0F0
F0F0
79E0
7FE0
3FC0
3FC0
0F00
ENDCHAR

STARTCHAR multiply
ENCODING 215
SWIDTH 360 0
DWIDTH 14 0
BBX 12 14 1 3
BITMAP
4020
E070
F0F0
79E0
3FC0
1F80
0F00
0F00
1F80
3FC0
79E0
F0F0
E070
4020
ENDCHAR

STARTCHAR Oslash
ENCODING 216
SWIDTH 360 0
DWIDTH 14 0
BBX 12 26 1 -2
BITMAP
0030
0030
0FF0
3FE0
3FE0
7FE0
79E0
F1F0
F1F0
F3F0
F3F0
F3F0
F6F0
F6F0
F6F0
FCF0
FCF0
FCF0
F8F0
79E0
7FE0
7FC0
7FC0
FF00
C000
C000
ENDCHAR

STARTCHAR Ugrave
ENCODING 217
SWIDTH 360 0
DWIDTH 14 0
BBX 12 30 1 0
BITMAP
1800
3C00
3E00
1F00
0780
01C0
0000
0000
F0F0
F0F0
F0F0
F0F0
F0F0
F0F0
F0F0
F0F0
F0F0
F0F0
F0F0
F0F0
F0F0
F0F0
F0F0
F0F0
F0F0
F0F0
FFF0
7FE0
7FE0
1F80
ENDCHAR

STARTCHAR Uacute
ENCODING 218
SWIDTH 360 0
DWIDTH 14 0
BBX 12 30 1 0
BITMAP
00C0
01E0
03E0
07C0
0F00
1C00
0000
0000
F0F0
F0F0
F0F0
F0F0
F0F0
F0F0
F0F0
F0F0
F0F0
F0F0
F0F0
F0F0
F0F0
F0F0
F0F0
F0F0
F0F0
F0F0
FFF0
7FE0
7FE0
1F80
ENDCHAR

STARTCHAR Ucircumflex
ENCODING 219
SWIDTH 360 0
DWIDTH 14 0
BBX 12 29 1 0
BITMAP
0F00
1F80
3FC0
79E0
70E0
0000
0000
F0F0
F0F0
F0F0
F0F0
F0F0
F0F0
F0F0
F0F0
F0F0
F0F0
F0F0
F0F0
F0F0
F0F0
F0F0
F0F0
F0F0
F0F0
FFF0
7FE0
7FE0
1F80
ENDCHAR

STARTCHAR Udieresis
ENCODING 220
SWIDTH 360 0
DWIDTH 14 0
BBX 12 29 1 0
BITMAP
6060
F0F0
F0F0
F0F0
6060
0000
0000
F0F0
F0F0
F0F0
F0F0
F0F0
F0F0
F0F0
F0F0
F0F0
F0F0
F0F0
F0F0
F0F0
F0F0
F0F0
F0F0
F0F0
F0F0
FFF0
7FE0
7FE0
1F80
ENDCHAR

STARTCHAR Yacute
ENCODING 221
SWIDTH 360 0
DWIDTH 14 0
BBX 12 30 1 0
BITMAP
00C0
01E0
03E0
07C0
0F00
1C00
0000
0000
F0F0
F0F0
F0F0
F0F0
70E0
70E0
79E0
39C0
39C0
39C0
1F80
1F80
1F80
0F00
0F00
0F00
0F00
0F00
3FC0
3FC0
3FC0
3FC0
ENDCHAR

STARTCHAR Thorn
ENCODING 222
SWIDTH 360 0
DWIDTH 14 0
BBX 12 22 1 0
BITMAP
F000
F000
F000
F000
FF80
FFE0
FFE0
FFF0
F0F0
F0F0
F0F0
F0F0
F0F0
F0F0
FFF0
FFE0
FFE0
FF80
F000
F000
F000
F000
ENDCHAR

STARTCHAR germandbls
ENCODING 223
SWIDTH 360 0
DWIDTH 14 0
BBX 12 24 1 0
BITMAP
1F80
7FE0
7FE0
FFF0
F0F0
F0F0
F0F0
F0E0
F3C0
F3C0
F3E0
F3E0
F0F0
F0F0
F0F0
F0F0
F0F0
F0F0
F0F0
F0F0
F7F0
F7E0
F7E0
F780
ENDCHAR

STARTCHAR agrave
ENCODING 224
SWIDTH 360 0
DWIDTH 14 0
BBX 12 26 1 0
BITMAP
0C00
1E00
1F00
0F80
03C0
00E0
0000
0000
3FC0
7FE0
7FF0
7FF0
00F0
00F0
1FF0
7FF0
7FF0
FFF0
F0F0
F0F0
F0F0
F0F0
FFF0
7FF0
7EF0
1CF0
ENDCHAR

STARTCHAR aacute
ENCODING 225
SWIDTH 360 0
DWIDTH 14 0
BBX 12 26 1 0
BITMAP
0180
03C0
07C0
0F80
1E00
3800
0000
0000
3FC0
7FE0
7FF0
7FF0
00F0
00F0
1FF0
7FF0
7FF0
FFF0
F0F0
F0F0
F0F0
F0F0
FFF0
7FF0
7EF0
1CF0
ENDCHAR

STARTCHAR acircumflex
ENCODING 226
SWIDTH 360 0
DWIDTH 14 0
BBX 12 25 1 0
BITMAP
0F00
1F80
3FC0
79E0
70E0
0000
0000
3FC0
7FE0
7FF0
7FF0
00F0
00F0
1FF0
7FF0
7FF0
FFF0
F0F0
F0F0
F0F0
F0F0
FFF0
7FF0
7EF0
1CF0
ENDCHAR

STARTCHAR atilde
ENCODING 227
SWIDTH 360 0
DWIDTH 14 0
BBX 12 25 1 0
BITMAP
1C60
3FE0
7FC0
6380
0000
0000
0000
3FC0
7FE0
7FF0
7FF0
00F0
00F0
1FF0
7FF0
7FF0
FFF0
F0F0
F0F0
F0F0
F0F0
FFF0
7FF0
7EF0
1CF0
ENDCHAR

STARTCHAR adieresis
ENCODING 228
SWIDTH 360 0
DWIDTH 14 0
BBX 12 25 1 0
BITMAP
6060
F0F0
F0F0
F0F0
6060
0000
0000
3FC0
7FE0
7FF0
7FF0
00F0
00F0
1FF0
7FF0
7FF0
FFF0
F0F0
F0F0
F0F0
F0F0
FFF0
7FF0
7EF0
1CF0
ENDCHAR

STARTCHAR aring
ENCODING 229
SWIDTH 360 0
DWIDTH 14 0
BBX 12 28 1 0
BITMAP
0F00
1F80
3FC0
39C0
39C0
39C0
3FC0
1F80
0F00
0000
3FC0
7FE0
7FF0
7FF0
00F0
00F0
1FF0
7FF0
7FF0
FFF0
F0F0
F0F0
F0F0
F0F0
FFF0
7FF0
7EF0
1CF0
ENDCHAR

STARTCHAR ae
ENCODING 230
SWIDTH 360 0
DWIDTH 14 0
BBX 12 18 1 0
BITMAP
7DE0
7DE0
7FF0
7FF0
0730
0730
3FF0
7FF0
FFF0
FFF0
E700
E700
E700
E700
FFF0
FFF0
7DF0
3DF0
ENDCHAR

STARTCHAR ccedilla
ENCODING 231
SWIDTH 360 0
DWIDTH 14 0
BBX 12 26 1 -8
BITMAP
1E70
7F70
7FF0
FFF0
F0F0
F070
F070
F000
F000
F000
F000
F000
F070
F070
FFF0
7FE0
7FE0
1F80
0600
0600
0780
01C0
31C0
3FC0
3F80
0F00
ENDCHAR

STARTCHAR egrave
ENCODING 232
SWIDTH 360 0
DWIDTH 14 0
BBX 12 26 1 0
BITMAP
1800
3C00
3E00
1F00
0780
01C0
0000
0000
1F80
7FE0
7FE0
FFF0
F0F0
F0F0
FFF0
FFF0
FFF0
FFF0
F000
F000
F070
F070
FFF0
7FE0
7FE0
1F80
ENDCHAR

STARTCHAR eacute
ENCODING 233
SWIDTH 360 0
DWIDTH 14 0
BBX 12 26 1 0
BITMAP
0180
03C0
07C0
0F80
1E00
3800
0000
0000
1F80
7FE0
7FE0
FFF0
F0F0
F0F0
FFF0
FFF0
FFF0
FFF0
F000
F000
F070
F070
FFF0
7FE0
7FE0
1F80
ENDCHAR

STARTCHAR ecircumflex
ENCODING 234
SWIDTH 360 0
DWIDTH 14 0
BBX 12 25 1 0
BITMAP
0F00
1F80
3FC0
79E0
70E0
0000
0000
1F80
7FE0
7FE0
FFF0
F0F0
F0F0
FFF0
FFF0
FFF0
FFF0
F000
F000
F070
F070
FFF0
7FE0
7FE0
1F80
ENDCHAR

STARTCHAR edieresis
ENCODING 235
SWIDTH 360 0
DWIDTH 14 0
BBX 12 25 1 0
BITMAP
6060
F0F0
F0F0
F0F0
6060
0000
0000
1F80
7FE0
7FE0
FFF0
F0F0
F0F0
FFF0
FFF0
FFF0
FFF0
F000
F000
F070
F070
FFF0
7FE0
7FE0
1F80
ENDCHAR

STARTCHAR igrave
ENCODING 236
SWIDTH 360 0
DWIDTH 14 0
BBX 12 26 1 0
BITMAP
3000
7800
7C00
3E00
0F00
0380
0000
0000
7F00
7F00
7F00
7F00
0F00
0F00
0F00
0F00
0F00
0F00
0F00
0F00
0F00
0F00
FFF0
FFF0
FFF0
FFF0
ENDCHAR

STARTCHAR iacute
ENCODING 237
SWIDTH 360 0
DWIDTH 14 0
BBX 12 26 1 0
BITMAP
0180
03C0
07C0
0F80
1E00
3800
0000
0000
7F00
7F00
7F00
7F00
0F00
0F00
0F00
0F00
0F00
0F00
0F00
0F00
0F00
0F00
FFF0
FFF0
FFF0
FFF0
ENDCHAR

STARTCHAR icircumflex
ENCODING 238
SWIDTH 360 0
DWIDTH 14 0
BBX 12 25 1 0
BITMAP
0F00
1F80
3FC0
79E0
70E0
0000
0000
7F00
7F00
7F00
7F00
0F00
0F00
0F00
0F00
0F00
0F00
0F00
0F00
0F00
0F00
FFF0
FFF0
FFF0
FFF0
ENDCHAR

STARTCHAR idieresis
ENCODING 239
SWIDTH 360 0
DWIDTH 14 0
BBX 12 25 1 0
BITMAP
6060
F0F0
F0F0
F0F0
6060
0000
0000
7F00
7F00
7F00
7F00
0F00
0F00
0F00
0F00
0F00
0F00
0F00
0F00
0F00
0F00
FFF0
FFF0
FFF0
FFF0
ENDCHAR

STARTCHAR eth
ENCODING 240
SWIDTH 360 0
DWIDTH 14 0
BBX 12 25 1 0
BITMAP
3830
3E70
0FC0
0780
1F80
79C0
61C0
00E0
1EE0
7FF0
7FF0
FFF0
F0F0
F0F0
F0F0
F0F0
F0F0
F0F0
F0F0
F0F0
F0F0
FFF0
7FE0
7FE0
1F80
ENDCHAR

STARTCHAR ntilde
ENCODING 241
SWIDTH 360 0
DWIDTH 14 0
BBX 12 25 1 0
BITMAP
1C60
3FE0
7FC0
6380
0000
0000
0000
F3C0
F7E0
FFE0
FFF0
F8F0
F0F0
F0F0
F0F0
F0F0
F0F0
F0F0
F0F0
F0F0
F0F0
F0F0
F0F0
F0F0
F0F0
ENDCHAR

STARTCHAR ograve
ENCODING 242
SWIDTH 360 0
DWIDTH 14 0
BBX 12 26 1 0
BITMAP
1800
3C00
3E00
1F00
0780
01C0
0000
0000
1F80
7FE0
7FE0
FFF0
F0F0
F0F0
F0F0
F0F0
F0F0
F0F0
F0F0
F0F0
F0F0
F0F0
FFF0
7FE0
7FE0
1F80
ENDCHAR

STARTCHAR oacute
ENCODING 243
SWIDTH 360 0
DWIDTH 14 0
BBX 12 26 1 0
BITMAP
0180
03C0
07C0
0F80
1E00
3800
0000
0000
1F80
7FE0
7FE0
FFF0
F0F0
F0F0
F0F0
F0F0
F0F0
F0F0
F0F0
F0F0
F0F0
F0F0
FFF0
7FE0
7FE0
1F80
ENDCHAR

STARTCHAR ocircumflex
ENCODING 244
SWIDTH 360 0
DWIDTH 14 0
BBX 12 25 1 0
BITMAP
0F00
1F80
3FC0
79E0
70E0
0000
0000
3FC0
3FC0
7FE0
7FE0
F0F0
F0F0
F0F0
F0F0
F0F0
F0F0
F0F0
F0F0
F0F0
F0F0
7FE0
7FE0
3FC0
3FC0
ENDCHAR

STARTCHAR otilde
ENCODING 245
SWIDTH 360 0
DWIDTH 14 0
BBX 12 25 1 0
BITMAP
1C60
3FE0
7FC0
6380
0000
0000
0000
1F80
7FE0
7FE0
FFF0
F0F0
F0F0
F0F0
F0F0
F0F0
F0F0
F0F0
F0F0
F0F0
F0F0
FFF0
7FE0
7FE0
1F80
ENDCHAR

STARTCHAR odieresis
ENCODING 246
SWIDTH 360 0
DWIDTH 14 0
BBX 12 25 1 0
BITMAP
6060
F0F0
F0F0
F0F0
6060
0000
0000
1F80
7FE0
7FE0
FFF0
F0F0
F0F0
F0F0
F0F0
F0F0
F0F0
F0F0
F0F0
F0F0
F0F0
FFF0
7FE0
7FE0
1F80
ENDCHAR

STARTCHAR divide
ENCODING 247
SWIDTH 360 0
DWIDTH 14 0
BBX 12 20 1 0
BITMAP
0600
0F00
0F00
0F00
0F00
0600
0000
0000
FFF0
FFF0
FFF0
FFF0
0000
0000
0600
0F00
0F00
0F00
0F00
0600
ENDCHAR

STARTCHAR oslash
ENCODING 248
SWIDTH 360 0
DWIDTH 14 0
BBX 12 18 1 0
BITMAP
1FB0
7FF0
7FE0
FFF0
F1F0
F1F0
F3F0
F3F0
F6F0
F6F0
FCF0
FCF0
F8F0
F8F0
FFF0
7FE0
FFE0
DF80
ENDCHAR

STARTCHAR ugrave
ENCODING 249
SWIDTH 360 0
DWIDTH 14 0
BBX 12 26 1 0
BITMAP
1800
3C00
3E00
1F00
0780
01C0
0000
0000
F0F0
F0F0
F0F0
F0F0
F0F0
F0F0
F0F0
F0F0
F0F0
F0F0
F0F0
F0F0
F0F0
F1F0
FFF0
FFF0
7EF0
3CF0
ENDCHAR

STARTCHAR uacute
ENCODING 250
SWIDTH 360 0
DWIDTH 14 0
BBX 12 26 1 0
BITMAP
00C0
01E0
03E0
07C0
0F00
1C00
0000
0000
F0F0
F0F0
F0F0
F0F0
F0F0
F0F0
F0F0
F0F0
F0F0
F0F0
F0F0
F0F0
F0F0
F1F0
FFF0
FFF0
7EF0
3CF0
ENDCHAR

STARTCHAR ucircumflex
ENCODING 251
SWIDTH 360 0
DWIDTH 14 0
BBX 12 25 1 0
BITMAP
0F00
1F80
3FC0
79E0
70E0
0000
0000
F0F0
F0F0
F0F0
F0F0
F0F0
F0F0
F0F0
F0F0
F0F0
F0F0
F0F0
F0F0
F0F0
F1F0
FFF0
FFF0
7EF0
3CF0
ENDCHAR

STARTCHAR udieresis
ENCODING 252
SWIDTH 360 0
DWIDTH 14 0
BBX 12 25 1 0
BITMAP
6060
F0F0
F0F0
F0F0
6060
0000
0000
F0F0
F0F0
F0F0
F0F0
F0F0
F0F0
F0F0
F0F0
F0F0
F0F0
F0F0
F0F0
F0F0
F1F0
FFF0
FFF0
7EF0
3CF0
ENDCHAR

STARTCHAR yacute
ENCODING 253
SWIDTH 360 0
DWIDTH 14 0
BBX 12 34 1 -8
BITMAP
0180
03C0
07C0
0F80
1E00
3800
0000
0000
F0F0
F0F0
F0F0
F0F0
70E0
70E0
79E0
79E0
39C0
39C0
39C0
39C0
3980
1F80
1F80
1F00
1F00
0F00
0E00
0E00
0E00
0E00
3F00
3F00
3F00
3F00
ENDCHAR

STARTCHAR thorn
ENCODING 254
SWIDTH 360 0
DWIDTH 14 0
BBX 13 32 0 -8
BITMAP
7800
7800
7800
7800
7800
7800
79C0
7BF0
7FF0
7FF8
7C78
7878
7878
7878
7878
7878
7878
7878
7878
7C78
7FF8
7FF0
7BF0
79C0
7800
7800
7800
7800
FE00
FE00
FE00
FE00
ENDCHAR

STARTCHAR ydieresis
ENCODING 255
SWIDTH 360 0
DWIDTH 14 0
BBX 12 33 1 -8
BITMAP
6060
F0F0
F0F0
F0F0
6060
0000
0000
F0F0
F0F0
F0F0
F0F0
70E0
70E0
79E0
79E0
39C0
39C0
39C0
39C0
3980
1F80
1F80
1F00
1F00
0F00
0E00
0E00
0E00
0E00
3F00
3F00
3F00
3F00
ENDCHAR
ENDFONT
